<?xml version="1.0" encoding="utf-8"?>
<!-- Generator: Adobe Illustrator 20.1.0, SVG Export Plug-In . SVG Version: 6.00 Build 0)  -->
<svg version="1.1" id="New" xmlns="http://www.w3.org/2000/svg" xmlns:xlink="http://www.w3.org/1999/xlink" x="0px" y="0px"
	 viewBox="0 0 148.7 43" style="enable-background:new 0 0 148.7 43;" xml:space="preserve">
<style type="text/css">
	.st0{fill:#4D4D4F;}
	.st1{fill:#B9D187;}
	.st2{fill:#70CBF3;}
</style>
<g>
	<g>
		<path class="st0" d="M24.1,5.4h1.8v2C26.4,6.6,27,6,27.6,5.6C28.2,5.2,28.9,5,29.5,5c0.5,0,1,0.2,1.6,0.5L30.2,7
			c-0.4-0.2-0.7-0.2-1-0.2c-0.6,0-1.2,0.2-1.7,0.7s-1,1.3-1.3,2.3c-0.2,0.8-0.3,2.4-0.3,4.8v4.7h-1.8C24.1,19.4,24.1,5.4,24.1,5.4z"
			/>
	</g>
	<g>
		<path class="st0" d="M41.3,5c2.2,0,3.9,0.8,5.4,2.3c1.3,1.4,1.9,3.1,1.9,5.1c0,2-0.7,3.7-2,5.1c-1.4,1.5-3.1,2.2-5.3,2.2
			c-2.1,0-3.9-0.7-5.3-2.2c-1.4-1.5-2-3.2-2-5.1c0-1.9,0.6-3.6,1.9-5C37.3,5.8,39.1,5,41.3,5z M41.3,6.8c-1.5,0-2.8,0.6-3.9,1.7
			c-1.1,1.1-1.6,2.4-1.6,4c0,1,0.2,2,0.7,2.8c0.5,0.9,1.2,1.5,2,2c0.8,0.5,1.8,0.7,2.7,0.7c1,0,1.9-0.2,2.7-0.7c0.8-0.5,1.5-1.2,2-2
			c0.5-0.9,0.7-1.8,0.7-2.8c0-1.6-0.5-2.9-1.6-4C44,7.4,42.7,6.8,41.3,6.8z"/>
	</g>
	<g>
		<path class="st1" d="M67.2,0v19.4h-1.8V17c-0.8,0.9-1.6,1.6-2.5,2.1s-2,0.7-3.1,0.7c-2,0-3.7-0.7-5.1-2.2
			c-1.4-1.4-2.1-3.2-2.1-5.2c0-2,0.7-3.7,2.1-5.2C56.1,5.8,57.8,5,59.8,5C61,5,62,5.3,63,5.8C63.9,6.3,64.7,7,65.4,8V0H67.2z"/>
	</g>
	<g>
		<path class="st0" d="M73.7,5.4h1.8v6.5c0,1.6,0.1,2.7,0.3,3.3c0.3,0.9,0.7,1.5,1.5,2c0.7,0.5,1.6,0.7,2.6,0.7c1,0,1.9-0.2,2.6-0.7
			c0.7-0.5,1.2-1.1,1.4-1.9c0.2-0.5,0.3-1.7,0.3-3.4V5.4h1.8v6.9c0,1.9-0.2,3.4-0.7,4.4c-0.5,1-1.1,1.7-2,2.3
			c-0.9,0.6-2,0.8-3.4,0.8c-1.4,0-2.5-0.3-3.4-0.8c-0.9-0.6-1.6-1.3-2-2.3c-0.5-1-0.7-2.5-0.7-4.5C73.7,12.1,73.7,5.4,73.7,5.4z"/>
	</g>
	<g>
		<path class="st0" d="M104.8,8.3l-1.4,0.9c-1.2-1.6-2.9-2.5-5.1-2.5c-1.7,0-3.1,0.5-4.2,1.6c-1.1,1.1-1.7,2.4-1.7,4
			c0,1,0.3,2,0.8,2.9c0.5,0.9,1.2,1.6,2.1,2.1c0.9,0.5,1.9,0.7,3,0.7c2.1,0,3.7-0.8,5-2.5l1.4,0.9c-0.7,1-1.6,1.8-2.7,2.3
			c-1.1,0.6-2.4,0.8-3.9,0.8c-2.2,0-4-0.7-5.5-2.1c-1.5-1.4-2.2-3.1-2.2-5.1c0-1.4,0.3-2.6,1-3.8s1.6-2.1,2.8-2.7c1.2-0.7,2.5-1,4-1
			c0.9,0,1.8,0.1,2.7,0.4s1.6,0.7,2.2,1.1C103.9,7,104.4,7.6,104.8,8.3z"/>
	</g>
	<g>
		<path class="st0" d="M121.4,14.8l1.5,0.8c-0.5,1-1.1,1.8-1.7,2.4c-0.7,0.6-1.4,1.1-2.2,1.4c-0.8,0.3-1.7,0.5-2.8,0.5
			c-2.3,0-4.1-0.7-5.4-2.2c-1.3-1.5-1.9-3.2-1.9-5.1c0-1.8,0.5-3.4,1.6-4.7c1.4-1.8,3.2-2.6,5.5-2.6c2.4,0,4.3,0.9,5.7,2.7
			c1,1.3,1.5,2.9,1.5,4.8h-12.6c0,1.6,0.6,3,1.6,4c1,1,2.2,1.6,3.7,1.6c0.7,0,1.4-0.1,2.1-0.4c0.7-0.2,1.2-0.6,1.7-1
			C120.3,16.3,120.8,15.7,121.4,14.8z M121.4,11c-0.2-1-0.6-1.7-1.1-2.3c-0.5-0.6-1.1-1-1.8-1.4c-0.8-0.4-1.5-0.5-2.4-0.5
			c-1.4,0-2.6,0.4-3.5,1.3c-0.7,0.6-1.3,1.6-1.6,2.9H121.4z"/>
	</g>
	<g>
		<path class="st1" d="M142,0v19.4h-1.8V17c-0.8,0.9-1.6,1.6-2.5,2.1s-2,0.7-3.1,0.7c-2,0-3.7-0.7-5.1-2.2c-1.4-1.4-2.1-3.2-2.1-5.2
			c0-2,0.7-3.7,2.1-5.2c1.4-1.4,3.1-2.1,5.1-2.1c1.1,0,2.2,0.2,3.1,0.7s1.7,1.2,2.5,2.2V0H142z"/>
	</g>
	<g>
		<g>
			<g>
				<path class="st2" d="M16.8,2.9C14.9,1,12.6,0,9.9,0C8.4,0,7,0.3,5.8,1C4.5,1.6,3.4,2.6,2.5,4l-0.7,1V0.5H0v42.2h1.8V15.3
					l0.7,0.8c1,1.2,2.2,2.2,3.4,2.8c1.3,0.6,2.6,0.9,4.1,0.9c2.7,0,5-1,6.8-2.9c1.9-1.9,2.8-4.3,2.8-7.1C19.7,7.2,18.7,4.8,16.8,2.9
					z"/>
			</g>
		</g>
	</g>
	<g>
		<g>
			<g>
				<path class="st2" d="M131.8,39.8c1.9,1.9,4.2,2.9,6.9,2.9c1.5,0,2.9-0.3,4.2-1c1.2-0.7,2.4-1.7,3.3-3l0.7-1v4.4h1.8V0h-1.8v27.3
					l-0.7-0.8c-1-1.2-2.2-2.2-3.4-2.8c-1.3-0.6-2.6-0.9-4.1-0.9c-2.7,0-5,1-6.8,2.9c-1.9,1.9-2.8,4.3-2.8,7.1
					C129,35.5,129.9,37.8,131.8,39.8z"/>
			</g>
		</g>
	</g>
	<g>
		<path class="st0" d="M127,37.3h-1.8v-2c-0.5,0.8-1.1,1.4-1.7,1.8c-0.6,0.4-1.2,0.6-1.9,0.6c-0.5,0-1-0.2-1.6-0.5l0.9-1.5
			c0.4,0.2,0.7,0.2,1,0.2c0.6,0,1.2-0.2,1.7-0.7s1-1.3,1.3-2.3c0.2-0.8,0.3-2.4,0.3-4.8v-4.7h1.8V37.3z"/>
	</g>
	<g>
		<path class="st0" d="M113.1,37.6c-2.2,0-3.9-0.8-5.4-2.3c-1.3-1.4-1.9-3.1-1.9-5.1c0-2,0.7-3.7,2-5.1c1.4-1.5,3.1-2.2,5.3-2.2
			c2.1,0,3.9,0.7,5.3,2.2c1.4,1.5,2,3.2,2,5.1c0,1.9-0.6,3.6-1.9,5C117,36.9,115.2,37.6,113.1,37.6z M113.1,35.9
			c1.5,0,2.8-0.6,3.9-1.7c1.1-1.1,1.6-2.4,1.6-4c0-1-0.2-2-0.7-2.8s-1.2-1.5-2-2c-0.8-0.5-1.8-0.7-2.7-0.7c-1,0-1.9,0.2-2.8,0.7
			c-0.8,0.5-1.5,1.2-2,2c-0.5,0.9-0.7,1.8-0.7,2.8c0,1.6,0.5,2.9,1.6,4C110.3,35.3,111.6,35.9,113.1,35.9z"/>
	</g>
	<g>
		<path class="st1" d="M89.8,42.7V23.3h1.8v2.4c0.8-0.9,1.6-1.6,2.5-2.1c0.9-0.5,2-0.7,3.1-0.7c2,0,3.7,0.7,5.1,2.2
			c1.4,1.4,2.1,3.2,2.1,5.2c0,2-0.7,3.7-2.1,5.2c-1.4,1.4-3.1,2.1-5.1,2.1c-1.1,0-2.2-0.2-3.1-0.7c-0.9-0.5-1.7-1.2-2.5-2.2v8
			L89.8,42.7L89.8,42.7z"/>
	</g>
	<g>
		<path class="st0" d="M87,37.3h-1.8v-6.5c0-1.6-0.1-2.7-0.3-3.3c-0.3-0.9-0.7-1.5-1.5-2s-1.6-0.7-2.6-0.7c-1,0-1.9,0.2-2.6,0.7
			c-0.7,0.5-1.2,1.1-1.4,1.9c-0.2,0.5-0.3,1.7-0.3,3.4v6.5h-1.8v-6.9c0-1.9,0.2-3.4,0.7-4.4c0.5-1,1.1-1.7,2-2.3
			c0.9-0.6,2-0.8,3.4-0.8c1.4,0,2.5,0.3,3.4,0.8c0.9,0.6,1.6,1.3,2,2.3c0.5,1,0.7,2.5,0.7,4.5L87,37.3L87,37.3z"/>
	</g>
	<g>
		<path class="st0" d="M59.1,34.4l1.4-0.9c1.2,1.6,2.9,2.5,5.1,2.5c1.7,0,3.1-0.5,4.2-1.6c1.1-1.1,1.7-2.4,1.7-4c0-1-0.3-2-0.8-2.9
			c-0.5-0.9-1.2-1.6-2.1-2.1c-0.9-0.5-1.9-0.7-3-0.7c-2.1,0-3.7,0.8-5,2.5l-1.4-0.9c0.7-1,1.6-1.8,2.7-2.3c1.1-0.6,2.4-0.8,3.9-0.8
			c2.2,0,4,0.7,5.5,2.1c1.5,1.4,2.2,3.1,2.2,5.1c0,1.4-0.3,2.6-1,3.8c-0.7,1.2-1.6,2.1-2.8,2.7s-2.5,1-4,1c-0.9,0-1.8-0.1-2.7-0.4
			c-0.9-0.3-1.6-0.7-2.2-1.1C60.1,35.7,59.6,35.1,59.1,34.4z"/>
	</g>
	<g>
		<path class="st0" d="M55.4,42.5h-1.8v-5.2h-2.9v-1.6h2.9V23.3h1.8v12.4h2.5v1.6h-2.5V42.5z"/>
	</g>
	<g>
		<path class="st0" d="M47.4,43c-0.4,0-0.8-0.1-1.1-0.4C46.1,42.3,46,42,46,41.6c0-0.4,0.1-0.8,0.4-1c0.3-0.3,0.6-0.4,1.1-0.4
			c0.4,0,0.7,0.1,1,0.4c0.3,0.3,0.4,0.6,0.4,1c0,0.4-0.1,0.8-0.4,1.1C48.2,42.9,47.8,43,47.4,43z M48.3,37.3h-1.8v-14h1.8V37.3z"/>
	</g>
	<g>
		<path class="st0" d="M37.5,37.6c-2.2,0-3.9-0.8-5.4-2.3c-1.3-1.4-1.9-3.1-1.9-5.1c0-2,0.7-3.7,2-5.1c1.4-1.5,3.1-2.2,5.3-2.2
			c2.1,0,3.9,0.7,5.3,2.2c1.4,1.5,2,3.2,2,5.1c0,1.9-0.6,3.6-1.9,5C41.4,36.9,39.6,37.6,37.5,37.6z M37.5,35.9
			c1.5,0,2.8-0.6,3.9-1.7c1.1-1.1,1.6-2.4,1.6-4c0-1-0.2-2-0.7-2.8c-0.5-0.9-1.2-1.5-2-2c-0.8-0.5-1.8-0.7-2.7-0.7
			c-1,0-1.9,0.2-2.7,0.7c-0.8,0.5-1.5,1.2-2,2c-0.5,0.9-0.7,1.8-0.7,2.8c0,1.6,0.5,2.9,1.6,4C34.7,35.3,36,35.9,37.5,35.9z"/>
	</g>
	<g>
		<path class="st0" d="M28.2,37.3h-1.8v-2.5c-0.7,1-1.5,1.7-2.4,2.2s-1.8,0.7-2.9,0.7c-1,0-2-0.3-2.8-0.8s-1.4-1.2-1.8-2.1
			c-0.4-0.9-0.6-2.3-0.6-4.2v-7.2h1.8V30c0,1.6,0.1,2.7,0.2,3.2c0.2,0.9,0.6,1.6,1.2,2.1c0.6,0.5,1.4,0.7,2.3,0.7
			c1.1,0,2.1-0.4,2.9-1.1c0.9-0.7,1.4-1.6,1.7-2.7c0.2-0.7,0.3-2,0.3-3.8v-5.1h1.8C28.2,23.3,28.2,37.3,28.2,37.3z"/>
	</g>
	<g>
		<path class="st0" d="M6.4,35.8l1.2-1.2c1,0.9,1.9,1.4,2.8,1.4c0.6,0,1.1-0.2,1.5-0.6c0.4-0.4,0.6-0.8,0.6-1.4
			c0-0.5-0.2-0.9-0.5-1.3c-0.3-0.4-1.1-0.9-2.2-1.5c-1.3-0.7-2.3-1.4-2.7-2c-0.5-0.7-0.7-1.4-0.7-2.2c0-1.1,0.4-2.1,1.2-2.9
			c0.8-0.8,1.8-1.2,3-1.2c0.8,0,1.6,0.2,2.3,0.5s1.3,0.8,1.8,1.5l-1.1,1.3c-0.9-1-1.9-1.6-2.9-1.6c-0.7,0-1.3,0.2-1.8,0.7
			s-0.8,1-0.8,1.6c0,0.5,0.2,1,0.5,1.4c0.3,0.4,1.1,0.9,2.3,1.5c1.3,0.7,2.1,1.3,2.6,1.9c0.5,0.6,0.7,1.4,0.7,2.2
			c0,1.1-0.4,1.9-1.1,2.6c-0.7,0.7-1.6,1.1-2.8,1.1C9,37.6,7.7,37,6.4,35.8z"/>
	</g>
</g>
</svg>
