<?xml version="1.0" encoding="utf-8"?>
<!-- Generator: Adobe Illustrator 16.0.3, SVG Export Plug-In . SVG Version: 6.00 Build 0)  -->
<!DOCTYPE svg PUBLIC "-//W3C//DTD SVG 1.1//EN" "http://www.w3.org/Graphics/SVG/1.1/DTD/svg11.dtd">
<svg version="1.1" id="New" xmlns="http://www.w3.org/2000/svg" xmlns:xlink="http://www.w3.org/1999/xlink" x="0px" y="0px"
	 width="158.999px" height="46.033px" viewBox="-11.776 -3.41 158.999 46.033"
	 enable-background="new -11.776 -3.41 158.999 46.033" xml:space="preserve">
<g>
	<g>
		<path fill="#4D4D4F" d="M13.951,2.368h1.967v2.188c0.587-0.862,1.206-1.506,1.857-1.932c0.651-0.427,1.33-0.641,2.036-0.641
			c0.531,0,1.101,0.171,1.705,0.51l-1.003,1.623c-0.404-0.173-0.743-0.262-1.018-0.262c-0.642,0-1.261,0.264-1.857,0.791
			c-0.596,0.527-1.05,1.345-1.362,2.456c-0.238,0.854-0.357,2.576-0.357,5.172v5.062h-1.967V2.368z"/>
	</g>
	<g>
		<path fill="#4D4D4F" d="M32.352,1.983c2.307,0,4.217,0.835,5.733,2.504c1.378,1.522,2.067,3.325,2.067,5.406
			c0,2.09-0.727,3.918-2.184,5.482s-3.328,2.346-5.616,2.346c-2.297,0-4.172-0.782-5.628-2.346
			c-1.457-1.563-2.185-3.392-2.185-5.482c0-2.073,0.689-3.87,2.067-5.393C28.121,2.823,30.037,1.983,32.352,1.983z M32.345,3.868
			c-1.601,0-2.977,0.592-4.129,1.774c-1.149,1.183-1.726,2.615-1.726,4.292c0,1.083,0.264,2.091,0.787,3.026
			c0.525,0.936,1.233,1.657,2.127,2.167c0.893,0.51,1.872,0.763,2.94,0.763c1.067,0,2.047-0.254,2.94-0.763s1.602-1.231,2.126-2.167
			c0.524-0.936,0.788-1.944,0.788-3.026c0-1.679-0.578-3.109-1.734-4.292C35.31,4.459,33.937,3.868,32.345,3.868z"/>
	</g>
	<g>
		<path fill="#B9D187" d="M60.062-3.41v20.745h-1.897v-2.573c-0.808,0.981-1.713,1.72-2.717,2.215
			c-1.003,0.496-2.103,0.743-3.295,0.743c-2.12,0-3.929-0.768-5.427-2.304c-1.5-1.537-2.249-3.404-2.249-5.605
			c0-2.156,0.756-3.999,2.27-5.531c1.513-1.531,3.334-2.297,5.461-2.297c1.229,0,2.341,0.262,3.336,0.785s1.869,1.307,2.621,2.353
			v-8.53H60.062z"/>
	</g>
	<g>
		<path fill="#4D4D4F" d="M66.994,2.368h1.927v6.988c0,1.706,0.09,2.88,0.274,3.522c0.276,0.917,0.803,1.641,1.578,2.174
			s1.701,0.798,2.775,0.798c1.075,0,1.986-0.259,2.735-0.777c0.748-0.518,1.265-1.199,1.55-2.043
			c0.192-0.577,0.288-1.802,0.288-3.673v-6.99h1.968v7.347c0,2.063-0.241,3.618-0.723,4.664s-1.204,1.864-2.173,2.456
			c-0.969,0.591-2.181,0.886-3.64,0.886s-2.675-0.296-3.651-0.888c-0.978-0.591-1.706-1.417-2.188-2.476
			c-0.481-1.059-0.722-2.652-0.722-4.78V2.368z"/>
	</g>
	<g>
		<path fill="#4D4D4F" d="M100.304,5.477l-1.527,0.95c-1.319-1.751-3.119-2.627-5.4-2.627c-1.823,0-3.337,0.587-4.541,1.76
			s-1.807,2.597-1.807,4.273c0,1.09,0.275,2.116,0.831,3.077c0.556,0.962,1.315,1.708,2.28,2.24c0.967,0.531,2.05,0.797,3.25,0.797
			c2.199,0,3.994-0.876,5.387-2.627l1.527,1.003c-0.714,1.078-1.676,1.913-2.882,2.508c-1.205,0.594-2.579,0.89-4.12,0.89
			c-2.366,0-4.329-0.753-5.888-2.256c-1.56-1.504-2.339-3.334-2.339-5.489c0-1.449,0.364-2.795,1.094-4.037
			c0.729-1.241,1.732-2.212,3.007-2.91c1.274-0.697,2.701-1.046,4.278-1.046c0.99,0,1.946,0.152,2.868,0.455
			s1.704,0.698,2.346,1.183C99.31,4.105,99.855,4.726,100.304,5.477z"/>
	</g>
	<g>
		<path fill="#4D4D4F" d="M118.013,12.369l1.624,0.854c-0.531,1.046-1.148,1.889-1.845,2.531c-0.697,0.642-1.482,1.13-2.354,1.465
			s-1.858,0.502-2.96,0.502c-2.442,0-4.351-0.801-5.728-2.401c-1.378-1.6-2.066-3.409-2.066-5.427c0-1.898,0.583-3.591,1.75-5.076
			c1.477-1.889,3.454-2.834,5.934-2.834c2.552,0,4.59,0.968,6.112,2.903c1.085,1.367,1.635,3.072,1.653,5.117h-13.469
			c0.036,1.739,0.592,3.164,1.667,4.275c1.074,1.112,2.4,1.667,3.981,1.667c0.76,0,1.502-0.132,2.224-0.396
			c0.721-0.266,1.334-0.616,1.839-1.055C116.88,14.054,117.426,13.347,118.013,12.369z M118.013,8.338
			c-0.257-1.027-0.63-1.847-1.123-2.462c-0.491-0.614-1.14-1.109-1.949-1.486c-0.807-0.375-1.655-0.563-2.547-0.563
			c-1.47,0-2.73,0.472-3.788,1.417c-0.771,0.688-1.354,1.72-1.749,3.095H118.013z"/>
	</g>
	<g>
		<path fill="#B9D187" d="M140.071-3.41v20.745h-1.898v-2.573c-0.807,0.981-1.713,1.72-2.716,2.215
			c-1.004,0.496-2.104,0.743-3.296,0.743c-2.119,0-3.929-0.768-5.427-2.304c-1.499-1.537-2.249-3.404-2.249-5.605
			c0-2.156,0.757-3.999,2.27-5.531c1.514-1.531,3.334-2.297,5.462-2.297c1.229,0,2.34,0.262,3.336,0.785
			c0.995,0.522,1.868,1.307,2.619,2.353v-8.53H140.071z"/>
	</g>
	<g>
		<g>
			<g>
				<path fill="#70CBF3" d="M6.221-0.3C4.188-2.359,1.709-3.404-1.147-3.404c-1.636,0-3.137,0.355-4.459,1.053
					c-1.325,0.702-2.52,1.771-3.546,3.182l-0.743,1.021v-4.716h-1.881v45.09h1.882V12.982l0.728,0.886
					c1.089,1.327,2.324,2.337,3.666,3.003c1.339,0.663,2.829,1,4.43,1c2.842,0,5.304-1.047,7.317-3.111
					c2.017-2.067,3.039-4.619,3.039-7.584C9.286,4.277,8.255,1.762,6.221-0.3z"/>
			</g>
		</g>
	</g>
	<g>
		<g>
			<g>
				<path fill="#70CBF3" d="M129.226,39.122c2.03,2.061,4.511,3.105,7.367,3.105c1.637,0,3.135-0.355,4.458-1.054
					c1.326-0.7,2.52-1.771,3.546-3.181l0.743-1.021v4.715h1.883V-3.4h-1.883v29.242l-0.728-0.888
					c-1.089-1.325-2.322-2.336-3.666-3.004c-1.339-0.662-2.829-1.002-4.429-1.002c-2.844,0-5.307,1.05-7.318,3.111
					c-2.018,2.068-3.039,4.62-3.039,7.586C126.159,34.546,127.191,37.063,129.226,39.122z"/>
			</g>
		</g>
	</g>
	<g>
		<path fill="#4D4D4F" d="M124.005,36.46h-1.967v-2.187c-0.587,0.861-1.206,1.506-1.857,1.933c-0.652,0.425-1.331,0.64-2.036,0.64
			c-0.531,0-1.102-0.171-1.705-0.51l1.004-1.624c0.403,0.174,0.743,0.263,1.017,0.263c0.644,0,1.261-0.265,1.857-0.792
			c0.597-0.526,1.051-1.345,1.361-2.455c0.239-0.854,0.359-2.577,0.359-5.173v-5.062h1.967V36.46z"/>
	</g>
	<g>
		<path fill="#4D4D4F" d="M109.127,36.846c-2.308,0-4.218-0.835-5.734-2.504c-1.379-1.523-2.066-3.324-2.066-5.406
			c0-2.091,0.727-3.918,2.184-5.481c1.456-1.564,3.328-2.346,5.616-2.346c2.297,0,4.173,0.781,5.629,2.346
			c1.455,1.563,2.184,3.391,2.184,5.481c0,2.072-0.689,3.87-2.067,5.393C113.358,36.007,111.443,36.846,109.127,36.846z
			 M109.135,34.961c1.599,0,2.976-0.592,4.127-1.774c1.151-1.184,1.726-2.614,1.726-4.292c0-1.082-0.264-2.091-0.787-3.026
			c-0.522-0.936-1.232-1.658-2.127-2.167c-0.892-0.509-1.872-0.764-2.938-0.764c-1.069,0-2.048,0.255-2.942,0.764
			c-0.893,0.509-1.6,1.231-2.126,2.167s-0.787,1.944-0.787,3.026c0,1.678,0.578,3.108,1.733,4.292
			C106.167,34.37,107.541,34.961,109.135,34.961z"/>
	</g>
	<g>
		<path fill="#B9D187" d="M84.233,42.239V21.494h1.897v2.572c0.809-0.982,1.713-1.721,2.717-2.216
			c1.005-0.495,2.103-0.744,3.295-0.744c2.119,0,3.929,0.769,5.427,2.306c1.5,1.537,2.249,3.403,2.249,5.604
			c0,2.155-0.756,3.999-2.27,5.53c-1.514,1.533-3.334,2.298-5.461,2.298c-1.229,0-2.341-0.262-3.336-0.784
			c-0.995-0.523-1.869-1.308-2.621-2.353v8.529h-1.897V42.239z"/>
	</g>
	<g>
		<path fill="#4D4D4F" d="M81.247,36.46h-1.927v-6.988c0-1.705-0.092-2.879-0.275-3.521c-0.275-0.917-0.802-1.642-1.578-2.173
			c-0.776-0.534-1.7-0.8-2.774-0.8c-1.075,0-1.986,0.261-2.735,0.777c-0.749,0.518-1.266,1.198-1.55,2.042
			c-0.192,0.578-0.289,1.802-0.289,3.673v6.988h-1.967v-7.346c0-2.063,0.24-3.618,0.722-4.664c0.48-1.045,1.205-1.863,2.174-2.455
			s2.181-0.888,3.639-0.888c1.459,0,2.676,0.296,3.652,0.888s1.706,1.417,2.188,2.477c0.481,1.058,0.722,2.652,0.722,4.779V36.46
			L81.247,36.46z"/>
	</g>
	<g>
		<path fill="#4D4D4F" d="M51.458,33.351l1.527-0.95c1.319,1.751,3.12,2.627,5.4,2.627c1.825,0,3.337-0.585,4.541-1.759
			c1.205-1.171,1.807-2.595,1.807-4.273c0-1.089-0.276-2.116-0.83-3.077c-0.555-0.963-1.316-1.708-2.281-2.239
			c-0.966-0.532-2.05-0.798-3.25-0.798c-2.198,0-3.994,0.875-5.387,2.627l-1.527-1.004c0.714-1.078,1.676-1.912,2.881-2.506
			c1.206-0.594,2.579-0.893,4.121-0.893c2.366,0,4.329,0.752,5.888,2.257c1.559,1.504,2.338,3.333,2.338,5.488
			c0,1.449-0.366,2.795-1.093,4.038c-0.729,1.241-1.732,2.212-3.007,2.909c-1.274,0.697-2.701,1.046-4.278,1.046
			c-0.992,0-1.947-0.151-2.869-0.454c-0.921-0.303-1.703-0.697-2.345-1.184C52.452,34.721,51.907,34.104,51.458,33.351z"/>
	</g>
	<g>
		<path fill="#4D4D4F" d="M47.488,42.019h-1.926V36.46h-3.054v-1.664h3.054V21.494h1.926v13.303h2.627v1.664h-2.627V42.019z"/>
	</g>
	<g>
		<path fill="#4D4D4F" d="M38.953,42.624c-0.439,0-0.814-0.155-1.124-0.468c-0.311-0.312-0.465-0.688-0.465-1.128
			c0-0.431,0.156-0.802,0.465-1.114c0.31-0.312,0.685-0.468,1.124-0.468c0.429,0,0.798,0.157,1.11,0.468
			c0.309,0.312,0.464,0.684,0.464,1.114c0,0.44-0.156,0.816-0.464,1.128C39.751,42.468,39.382,42.624,38.953,42.624z M39.908,36.46
			h-1.926V21.494h1.926V36.46z"/>
	</g>
	<g>
		<path fill="#4D4D4F" d="M28.303,36.846c-2.307,0-4.216-0.835-5.733-2.504c-1.378-1.523-2.067-3.324-2.067-5.406
			c0-2.091,0.728-3.918,2.184-5.481c1.456-1.564,3.327-2.346,5.615-2.346c2.297,0,4.173,0.781,5.628,2.346
			c1.457,1.563,2.185,3.391,2.185,5.481c0,2.072-0.689,3.87-2.067,5.393C32.533,36.007,30.619,36.846,28.303,36.846z M28.309,34.961
			c1.602,0,2.977-0.592,4.129-1.774c1.148-1.184,1.725-2.614,1.725-4.292c0-1.082-0.263-2.091-0.787-3.026
			c-0.525-0.936-1.233-1.658-2.127-2.167c-0.893-0.509-1.872-0.764-2.94-0.764c-1.067,0-2.047,0.255-2.94,0.764
			c-0.893,0.508-1.602,1.231-2.126,2.167c-0.524,0.936-0.787,1.944-0.787,3.026c0,1.678,0.577,3.108,1.733,4.292
			C25.344,34.37,26.718,34.961,28.309,34.961z"/>
	</g>
	<g>
		<path fill="#4D4D4F" d="M18.349,36.46h-1.927v-2.682c-0.77,1.026-1.624,1.795-2.559,2.304c-0.935,0.509-1.953,0.764-3.054,0.764
			c-1.119,0-2.113-0.284-2.979-0.854c-0.866-0.569-1.506-1.335-1.92-2.297c-0.413-0.962-0.618-2.464-0.618-4.498v-7.703h1.926v7.14
			c0,1.725,0.073,2.875,0.215,3.452c0.221,0.991,0.651,1.736,1.284,2.235c0.633,0.498,1.458,0.751,2.475,0.751
			c1.165,0,2.21-0.386,3.131-1.156c0.922-0.77,1.53-1.724,1.824-2.862c0.182-0.742,0.274-2.1,0.274-4.071v-5.49h1.927V36.46z"/>
	</g>
	<g>
		<path fill="#4D4D4F" d="M-4.949,34.823l1.239-1.279c1.029,1.001,2.035,1.498,3.019,1.498c0.626,0,1.161-0.206,1.607-0.618
			c0.446-0.411,0.669-0.895,0.669-1.442c0-0.486-0.185-0.951-0.552-1.391c-0.367-0.45-1.141-0.978-2.317-1.583
			c-1.433-0.743-2.407-1.458-2.921-2.146c-0.507-0.698-0.759-1.482-0.759-2.354c0-1.229,0.431-2.27,1.297-3.121
			c0.861-0.854,1.941-1.281,3.237-1.281c0.862,0,1.688,0.188,2.472,0.564s1.437,0.895,1.95,1.555L2.781,24.6
			c-0.983-1.109-2.027-1.664-3.131-1.664c-0.77,0-1.429,0.247-1.972,0.743c-0.542,0.495-0.812,1.077-0.812,1.747
			c0,0.55,0.179,1.041,0.536,1.472c0.36,0.422,1.167,0.954,2.427,1.596c1.352,0.697,2.271,1.385,2.757,2.063
			c0.487,0.679,0.731,1.453,0.731,2.325c0,1.137-0.389,2.08-1.164,2.833c-0.777,0.753-1.756,1.129-2.943,1.129
			C-2.165,36.846-3.552,36.172-4.949,34.823z"/>
	</g>
</g>
</svg>
