<?xml version="1.0" encoding="utf-8"?>
<!-- Generator: Adobe Illustrator 20.1.0, SVG Export Plug-In . SVG Version: 6.00 Build 0)  -->
<svg version="1.1" id="New" xmlns="http://www.w3.org/2000/svg" xmlns:xlink="http://www.w3.org/1999/xlink" x="0px" y="0px"
	 viewBox="0 0 160.6 46.5" style="enable-background:new 0 0 160.6 46.5;" xml:space="preserve">
<style type="text/css">
	.st0{fill:#4D4D4F;}
	.st1{fill:#B9D187;}
	.st2{fill:#70CBF3;}
</style>
<g>
	<g>
		<path class="st0" d="M26,5.8h2V8c0.6-0.9,1.2-1.5,1.9-2c0.7-0.4,1.3-0.6,2.1-0.6c0.5,0,1.1,0.2,1.7,0.5l-1,1.6
			c-0.4-0.2-0.8-0.3-1-0.3c-0.6,0-1.3,0.3-1.9,0.8s-1.1,1.4-1.4,2.5c-0.2,0.9-0.4,2.6-0.4,5.2V21h-2C26,21,26,5.8,26,5.8z"/>
	</g>
	<g>
		<path class="st0" d="M44.6,5.4c2.3,0,4.3,0.8,5.8,2.5c1.4,1.5,2.1,3.4,2.1,5.5c0,2.1-0.7,4-2.2,5.5c-1.5,1.6-3.4,2.4-5.7,2.4
			c-2.3,0-4.2-0.8-5.7-2.4c-1.5-1.6-2.2-3.4-2.2-5.5c0-2.1,0.7-3.9,2.1-5.4C40.3,6.3,42.2,5.4,44.6,5.4z M44.6,7.4
			c-1.6,0-3,0.6-4.2,1.8c-1.2,1.2-1.7,2.6-1.7,4.3c0,1.1,0.3,2.1,0.8,3.1c0.5,0.9,1.2,1.7,2.1,2.2c0.9,0.5,1.9,0.8,3,0.8
			c1.1,0,2.1-0.3,3-0.8c0.9-0.5,1.6-1.2,2.1-2.2c0.5-0.9,0.8-2,0.8-3.1c0-1.7-0.6-3.1-1.8-4.3C47.6,7.9,46.2,7.4,44.6,7.4z"/>
	</g>
	<g>
		<path class="st1" d="M72.6,0v21h-1.9v-2.6c-0.8,1-1.7,1.7-2.7,2.2c-1,0.5-2.1,0.8-3.3,0.8c-2.1,0-4-0.8-5.5-2.3
			c-1.5-1.6-2.3-3.4-2.3-5.7c0-2.2,0.8-4,2.3-5.6c1.5-1.5,3.4-2.3,5.5-2.3c1.2,0,2.4,0.3,3.4,0.8s1.9,1.3,2.6,2.4V0H72.6z"/>
	</g>
	<g>
		<path class="st0" d="M79.6,5.8h1.9v7.1c0,1.7,0.1,2.9,0.3,3.6c0.3,0.9,0.8,1.7,1.6,2.2c0.8,0.5,1.7,0.8,2.8,0.8
			c1.1,0,2-0.3,2.8-0.8c0.8-0.5,1.3-1.2,1.6-2.1c0.2-0.6,0.3-1.8,0.3-3.7V5.8h2v7.4c0,2.1-0.2,3.7-0.7,4.7c-0.5,1.1-1.2,1.9-2.2,2.5
			c-1,0.6-2.2,0.9-3.7,0.9s-2.7-0.3-3.7-0.9c-1-0.6-1.7-1.4-2.2-2.5s-0.7-2.7-0.7-4.8C79.6,13.1,79.6,5.8,79.6,5.8z"/>
	</g>
	<g>
		<path class="st0" d="M113.2,9l-1.5,1c-1.3-1.8-3.2-2.7-5.5-2.7c-1.8,0-3.4,0.6-4.6,1.8c-1.2,1.2-1.8,2.6-1.8,4.3
			c0,1.1,0.3,2.1,0.8,3.1c0.6,1,1.3,1.7,2.3,2.3c1,0.5,2.1,0.8,3.3,0.8c2.2,0,4-0.9,5.4-2.7l1.5,1c-0.7,1.1-1.7,1.9-2.9,2.5
			c-1.2,0.6-2.6,0.9-4.2,0.9c-2.4,0-4.4-0.8-5.9-2.3s-2.4-3.4-2.4-5.5c0-1.5,0.4-2.8,1.1-4.1s1.7-2.2,3-2.9s2.7-1.1,4.3-1.1
			c1,0,2,0.2,2.9,0.5c0.9,0.3,1.7,0.7,2.4,1.2C112.2,7.6,112.8,8.2,113.2,9z"/>
	</g>
	<g>
		<path class="st0" d="M131.1,15.9l1.6,0.9c-0.5,1.1-1.2,1.9-1.9,2.6s-1.5,1.1-2.4,1.5c-0.9,0.3-1.9,0.5-3,0.5
			c-2.5,0-4.4-0.8-5.8-2.4c-1.4-1.6-2.1-3.4-2.1-5.5c0-1.9,0.6-3.6,1.8-5.1c1.5-1.9,3.5-2.9,6-2.9c2.6,0,4.6,1,6.2,2.9
			c1.1,1.4,1.7,3.1,1.7,5.2h-13.6c0,1.8,0.6,3.2,1.7,4.3c1.1,1.1,2.4,1.7,4,1.7c0.8,0,1.5-0.1,2.2-0.4c0.7-0.3,1.3-0.6,1.9-1.1
			C130,17.6,130.5,16.9,131.1,15.9z M131.1,11.9c-0.3-1-0.6-1.9-1.1-2.5c-0.5-0.6-1.2-1.1-2-1.5c-0.8-0.4-1.7-0.6-2.6-0.6
			c-1.5,0-2.8,0.5-3.8,1.4c-0.8,0.7-1.4,1.7-1.8,3.1H131.1z"/>
	</g>
	<g>
		<path class="st1" d="M153.4,0v21h-1.9v-2.6c-0.8,1-1.7,1.7-2.7,2.2c-1,0.5-2.1,0.8-3.3,0.8c-2.1,0-4-0.8-5.5-2.3
			c-1.5-1.6-2.3-3.4-2.3-5.7c0-2.2,0.8-4,2.3-5.6s3.4-2.3,5.5-2.3c1.2,0,2.4,0.3,3.4,0.8c1,0.5,1.9,1.3,2.6,2.4V0H153.4z"/>
	</g>
	<g>
		<g>
			<g>
				<path class="st2" d="M18.2,3.1C16.1,1.1,13.6,0,10.7,0C9.1,0,7.6,0.4,6.2,1.1C4.9,1.8,3.7,2.9,2.7,4.3l-0.8,1V0.6H0v45.5h1.9
					V16.6l0.7,0.9c1.1,1.3,2.3,2.4,3.7,3c1.4,0.7,2.9,1,4.5,1c2.9,0,5.4-1.1,7.4-3.1c2-2.1,3.1-4.7,3.1-7.7
					C21.3,7.8,20.2,5.2,18.2,3.1z"/>
			</g>
		</g>
	</g>
	<g>
		<g>
			<g>
				<path class="st2" d="M142.4,43c2.1,2.1,4.6,3.1,7.4,3.1c1.7,0,3.2-0.4,4.5-1.1c1.3-0.7,2.5-1.8,3.6-3.2l0.8-1v4.8h1.9V0h-1.9
					v29.5l-0.7-0.9c-1.1-1.3-2.3-2.4-3.7-3c-1.4-0.7-2.9-1-4.5-1c-2.9,0-5.4,1.1-7.4,3.1c-2,2.1-3.1,4.7-3.1,7.7
					C139.3,38.3,140.4,40.9,142.4,43z"/>
			</g>
		</g>
	</g>
	<g>
		<path class="st0" d="M137.2,40.3h-2v-2.2c-0.6,0.9-1.2,1.5-1.9,2s-1.3,0.6-2.1,0.6c-0.5,0-1.1-0.2-1.7-0.5l1-1.6
			c0.4,0.2,0.8,0.3,1,0.3c0.6,0,1.3-0.3,1.9-0.8s1.1-1.4,1.4-2.5c0.2-0.9,0.4-2.6,0.4-5.2v-5.1h2V40.3z"/>
	</g>
	<g>
		<path class="st0" d="M122.1,40.7c-2.3,0-4.3-0.8-5.8-2.5c-1.4-1.5-2.1-3.4-2.1-5.5c0-2.1,0.7-4,2.2-5.5c1.5-1.6,3.4-2.4,5.7-2.4
			c2.3,0,4.2,0.8,5.7,2.4s2.2,3.4,2.2,5.5c0,2.1-0.7,3.9-2.1,5.4C126.4,39.8,124.5,40.7,122.1,40.7z M122.1,38.8
			c1.6,0,3-0.6,4.2-1.8c1.2-1.2,1.7-2.6,1.7-4.3c0-1.1-0.3-2.1-0.8-3.1c-0.5-0.9-1.2-1.7-2.1-2.2c-0.9-0.5-1.9-0.8-3-0.8
			c-1.1,0-2.1,0.3-3,0.8c-0.9,0.5-1.6,1.2-2.1,2.2s-0.8,2-0.8,3.1c0,1.7,0.6,3.1,1.8,4.3C119.1,38.2,120.5,38.8,122.1,38.8z"/>
	</g>
	<g>
		<path class="st1" d="M97,46.1v-21h1.9v2.6c0.8-1,1.7-1.7,2.7-2.2c1-0.5,2.1-0.8,3.3-0.8c2.1,0,4,0.8,5.5,2.3
			c1.5,1.6,2.3,3.4,2.3,5.7c0,2.2-0.8,4-2.3,5.6c-1.5,1.5-3.4,2.3-5.5,2.3c-1.2,0-2.4-0.3-3.4-0.8c-1-0.5-1.9-1.3-2.6-2.4v8.6
			L97,46.1L97,46.1z"/>
	</g>
	<g>
		<path class="st0" d="M94,40.3H92v-7.1c0-1.7-0.1-2.9-0.3-3.6c-0.3-0.9-0.8-1.7-1.6-2.2c-0.8-0.5-1.7-0.8-2.8-0.8
			c-1.1,0-2,0.3-2.8,0.8c-0.8,0.5-1.3,1.2-1.6,2.1c-0.2,0.6-0.3,1.8-0.3,3.7v7.1h-2v-7.4c0-2.1,0.2-3.7,0.7-4.7
			c0.5-1.1,1.2-1.9,2.2-2.5c1-0.6,2.2-0.9,3.7-0.9s2.7,0.3,3.7,0.9c1,0.6,1.7,1.4,2.2,2.5c0.5,1.1,0.7,2.7,0.7,4.8L94,40.3L94,40.3z
			"/>
	</g>
	<g>
		<path class="st0" d="M63.9,37.1l1.5-1c1.3,1.8,3.2,2.7,5.5,2.7c1.8,0,3.4-0.6,4.6-1.8c1.2-1.2,1.8-2.6,1.8-4.3
			c0-1.1-0.3-2.1-0.8-3.1c-0.6-1-1.3-1.7-2.3-2.3c-1-0.5-2.1-0.8-3.3-0.8c-2.2,0-4,0.9-5.4,2.7l-1.5-1c0.7-1.1,1.7-1.9,2.9-2.5
			s2.6-0.9,4.2-0.9c2.4,0,4.4,0.8,5.9,2.3c1.6,1.5,2.4,3.4,2.4,5.5c0,1.5-0.4,2.8-1.1,4.1c-0.7,1.3-1.7,2.2-3,2.9
			c-1.3,0.7-2.7,1.1-4.3,1.1c-1,0-2-0.2-2.9-0.5c-0.9-0.3-1.7-0.7-2.4-1.2S64.3,37.9,63.9,37.1z"/>
	</g>
	<g>
		<path class="st0" d="M59.9,45.9h-1.9v-5.6h-3.1v-1.7h3.1V25.2h1.9v13.4h2.7v1.7h-2.7V45.9z"/>
	</g>
	<g>
		<path class="st0" d="M51.2,46.5c-0.4,0-0.8-0.2-1.1-0.5c-0.3-0.3-0.5-0.7-0.5-1.1c0-0.4,0.2-0.8,0.5-1.1c0.3-0.3,0.7-0.5,1.1-0.5
			c0.4,0,0.8,0.2,1.1,0.5c0.3,0.3,0.5,0.7,0.5,1.1c0,0.4-0.2,0.8-0.5,1.1C52,46.3,51.7,46.5,51.2,46.5z M52.2,40.3h-1.9V25.2h1.9
			V40.3z"/>
	</g>
	<g>
		<path class="st0" d="M40.5,40.7c-2.3,0-4.3-0.8-5.8-2.5c-1.4-1.5-2.1-3.4-2.1-5.5c0-2.1,0.7-4,2.2-5.5c1.5-1.6,3.4-2.4,5.7-2.4
			c2.3,0,4.2,0.8,5.7,2.4c1.5,1.6,2.2,3.4,2.2,5.5c0,2.1-0.7,3.9-2.1,5.4C44.8,39.8,42.8,40.7,40.5,40.7z M40.5,38.8
			c1.6,0,3-0.6,4.2-1.8c1.2-1.2,1.7-2.6,1.7-4.3c0-1.1-0.3-2.1-0.8-3.1c-0.5-0.9-1.2-1.7-2.1-2.2c-0.9-0.5-1.9-0.8-3-0.8
			c-1.1,0-2.1,0.3-3,0.8c-0.9,0.5-1.6,1.2-2.1,2.2c-0.5,0.9-0.8,2-0.8,3.1c0,1.7,0.6,3.1,1.8,4.3C37.5,38.2,38.9,38.8,40.5,38.8z"/>
	</g>
	<g>
		<path class="st0" d="M30.4,40.3h-1.9v-2.7c-0.8,1-1.6,1.8-2.6,2.3s-2,0.8-3.1,0.8c-1.1,0-2.1-0.3-3-0.9s-1.5-1.3-1.9-2.3
			c-0.4-1-0.6-2.5-0.6-4.5v-7.8h1.9v7.2c0,1.7,0.1,2.9,0.2,3.5c0.2,1,0.7,1.8,1.3,2.3c0.6,0.5,1.5,0.8,2.5,0.8
			c1.2,0,2.2-0.4,3.2-1.2c0.9-0.8,1.5-1.7,1.8-2.9c0.2-0.8,0.3-2.1,0.3-4.1v-5.5h1.9C30.4,25.2,30.4,40.3,30.4,40.3z"/>
	</g>
	<g>
		<path class="st0" d="M6.9,38.6l1.3-1.3c1,1,2.1,1.5,3,1.5c0.6,0,1.2-0.2,1.6-0.6c0.5-0.4,0.7-0.9,0.7-1.5c0-0.5-0.2-1-0.6-1.4
			c-0.4-0.5-1.2-1-2.3-1.6c-1.4-0.8-2.4-1.5-3-2.2c-0.5-0.7-0.8-1.5-0.8-2.4c0-1.2,0.4-2.3,1.3-3.2c0.9-0.9,2-1.3,3.3-1.3
			c0.9,0,1.7,0.2,2.5,0.6c0.8,0.4,1.5,0.9,2,1.6l-1.2,1.4c-1-1.1-2-1.7-3.2-1.7c-0.8,0-1.4,0.3-2,0.8s-0.8,1.1-0.8,1.8
			c0,0.6,0.2,1.1,0.5,1.5c0.4,0.4,1.2,1,2.5,1.6c1.4,0.7,2.3,1.4,2.8,2.1c0.5,0.7,0.7,1.5,0.7,2.3c0,1.1-0.4,2.1-1.2,2.9
			c-0.8,0.8-1.8,1.1-3,1.1C9.7,40.7,8.3,40,6.9,38.6z"/>
	</g>
</g>
</svg>
