<?xml version="1.0" encoding="utf-8"?>
<!-- Generator: Adobe Illustrator 16.0.3, SVG Export Plug-In . SVG Version: 6.00 Build 0)  -->
<!DOCTYPE svg PUBLIC "-//W3C//DTD SVG 1.1//EN" "http://www.w3.org/Graphics/SVG/1.1/DTD/svg11.dtd">
<svg version="1.1" id="New" xmlns="http://www.w3.org/2000/svg" xmlns:xlink="http://www.w3.org/1999/xlink" x="0px" y="0px"
	 width="156px" height="45px" viewBox="0 0 156 45" enable-background="new 0 0 156 45"
	 xml:space="preserve">
<g>
	<g>
		<path fill="#4D4D4F" d="M21.916,4.922h1.676v1.863c0.5-0.734,1.027-1.283,1.582-1.646s1.133-0.545,1.734-0.545
			c0.453,0,0.938,0.145,1.453,0.434L27.506,6.41c-0.344-0.148-0.633-0.223-0.867-0.223c-0.547,0-1.074,0.225-1.582,0.674
			s-0.895,1.146-1.16,2.092c-0.203,0.727-0.305,2.195-0.305,4.406v4.312h-1.676V4.922z"/>
	</g>
	<g>
		<path fill="#4D4D4F" d="M37.592,4.594c1.965,0,3.592,0.711,4.884,2.133c1.174,1.297,1.761,2.832,1.761,4.605
			c0,1.781-0.62,3.338-1.861,4.67C41.135,17.334,39.541,18,37.592,18c-1.957,0-3.555-0.666-4.795-1.998
			c-1.241-1.332-1.861-2.889-1.861-4.67c0-1.766,0.587-3.297,1.761-4.594C33.988,5.309,35.619,4.594,37.592,4.594z M37.586,6.199
			c-1.364,0-2.536,0.504-3.517,1.512c-0.979,1.008-1.47,2.227-1.47,3.656c0,0.922,0.224,1.781,0.67,2.578
			c0.447,0.797,1.051,1.412,1.812,1.846s1.595,0.65,2.505,0.65c0.909,0,1.744-0.217,2.505-0.65s1.364-1.049,1.812-1.846
			c0.446-0.797,0.67-1.656,0.67-2.578c0-1.43-0.492-2.648-1.477-3.656C40.112,6.703,38.942,6.199,37.586,6.199z"/>
	</g>
	<g>
		<path fill="#B9D187" d="M61.197,0v17.672H59.58V15.48c-0.688,0.836-1.459,1.465-2.314,1.887S55.475,18,54.459,18
			c-1.805,0-3.346-0.654-4.623-1.963s-1.916-2.9-1.916-4.775c0-1.836,0.645-3.406,1.934-4.711s2.84-1.957,4.652-1.957
			c1.047,0,1.994,0.223,2.842,0.668s1.592,1.113,2.232,2.004V0H61.197z"/>
	</g>
	<g>
		<path fill="#4D4D4F" d="M67.102,4.922h1.641v5.953c0,1.453,0.078,2.453,0.235,3c0.235,0.781,0.683,1.398,1.344,1.852
			s1.449,0.68,2.364,0.68c0.916,0,1.692-0.221,2.33-0.662s1.078-1.021,1.32-1.74c0.164-0.492,0.246-1.535,0.246-3.129V4.922h1.676
			v6.258c0,1.758-0.205,3.082-0.615,3.973s-1.027,1.588-1.852,2.092S73.934,18,72.691,18s-2.279-0.252-3.111-0.756
			s-1.453-1.207-1.863-2.109s-0.615-2.26-0.615-4.072V4.922z"/>
	</g>
	<g>
		<path fill="#4D4D4F" d="M95.478,7.57l-1.301,0.809c-1.124-1.492-2.657-2.238-4.601-2.238c-1.553,0-2.842,0.5-3.868,1.499
			c-1.026,0.999-1.539,2.212-1.539,3.64c0,0.929,0.235,1.803,0.708,2.622s1.12,1.455,1.943,1.908
			c0.823,0.452,1.746,0.679,2.768,0.679c1.873,0,3.402-0.746,4.589-2.238l1.301,0.855c-0.609,0.918-1.428,1.63-2.455,2.136
			S90.825,18,89.513,18c-2.016,0-3.688-0.641-5.016-1.922s-1.992-2.84-1.992-4.676c0-1.234,0.311-2.381,0.932-3.439
			s1.475-1.885,2.561-2.479s2.301-0.891,3.645-0.891c0.844,0,1.658,0.129,2.443,0.387s1.451,0.594,1.998,1.008
			S95.095,6.93,95.478,7.57z"/>
	</g>
	<g>
		<path fill="#4D4D4F" d="M110.564,13.441l1.383,0.727c-0.453,0.891-0.978,1.609-1.572,2.156c-0.594,0.547-1.262,0.963-2.006,1.248
			c-0.742,0.285-1.583,0.428-2.521,0.428c-2.08,0-3.706-0.682-4.879-2.045c-1.174-1.363-1.76-2.904-1.76-4.623
			c0-1.617,0.496-3.059,1.49-4.324c1.258-1.609,2.943-2.414,5.055-2.414c2.174,0,3.91,0.824,5.207,2.473
			c0.924,1.164,1.393,2.617,1.408,4.359h-11.473c0.031,1.481,0.504,2.695,1.42,3.642c0.915,0.947,2.045,1.42,3.391,1.42
			c0.648,0,1.281-0.113,1.895-0.338c0.614-0.226,1.137-0.525,1.566-0.899C109.599,14.877,110.064,14.274,110.564,13.441z
			 M110.564,10.008c-0.219-0.875-0.537-1.574-0.957-2.098c-0.418-0.523-0.971-0.945-1.66-1.266c-0.688-0.32-1.411-0.48-2.17-0.48
			c-1.252,0-2.327,0.402-3.227,1.207c-0.657,0.586-1.154,1.465-1.49,2.637H110.564z"/>
	</g>
	<g>
		<path fill="#B9D187" d="M129.354,0v17.672h-1.617V15.48c-0.688,0.836-1.459,1.465-2.314,1.887S123.631,18,122.615,18
			c-1.805,0-3.346-0.654-4.623-1.963s-1.916-2.9-1.916-4.775c0-1.836,0.645-3.406,1.934-4.711s2.84-1.957,4.652-1.957
			c1.047,0,1.994,0.223,2.842,0.668s1.592,1.113,2.232,2.004V0H129.354z"/>
	</g>
	<g>
		<g>
			<g>
				<path fill="#70CBF3" d="M15.331,2.649C13.6,0.895,11.488,0.005,9.055,0.005c-1.394,0-2.672,0.302-3.799,0.897
					C4.127,1.5,3.11,2.411,2.236,3.613l-0.633,0.87V0.466H0v38.411h1.604V13.964l0.62,0.755c0.928,1.13,1.979,1.991,3.123,2.558
					c1.141,0.565,2.41,0.852,3.773,0.852c2.421,0,4.519-0.892,6.234-2.65c1.718-1.761,2.589-3.935,2.589-6.461
					C17.943,6.548,17.064,4.405,15.331,2.649z"/>
			</g>
		</g>
	</g>
	<g>
		<g>
			<g>
				<path fill="#70CBF3" d="M120.115,36.231c1.73,1.755,3.843,2.645,6.276,2.645c1.394,0,2.671-0.302,3.798-0.897
					c1.13-0.597,2.146-1.509,3.02-2.71l0.634-0.87v4.017h1.604V0.008h-1.604v24.909l-0.62-0.756
					c-0.928-1.129-1.979-1.99-3.123-2.558c-1.141-0.565-2.41-0.853-3.773-0.853c-2.422,0-4.52,0.893-6.234,2.65
					c-1.719,1.762-2.589,3.936-2.589,6.462C117.503,32.333,118.382,34.477,120.115,36.231z"/>
			</g>
		</g>
	</g>
	<g>
		<path fill="#4D4D4F" d="M115.668,33.964h-1.676v-1.863c-0.5,0.734-1.027,1.283-1.582,1.646s-1.133,0.545-1.734,0.545
			c-0.453,0-0.938-0.145-1.453-0.434l0.855-1.383c0.344,0.148,0.633,0.223,0.867,0.223c0.547,0,1.074-0.225,1.582-0.674
			s0.895-1.146,1.16-2.092c0.203-0.727,0.305-2.195,0.305-4.406v-4.312h1.676V33.964z"/>
	</g>
	<g>
		<path fill="#4D4D4F" d="M102.994,34.292c-1.965,0-3.593-0.711-4.885-2.133c-1.174-1.297-1.76-2.832-1.76-4.605
			c0-1.781,0.619-3.338,1.86-4.67c1.24-1.332,2.835-1.998,4.784-1.998c1.956,0,3.555,0.666,4.795,1.998s1.861,2.889,1.861,4.67
			c0,1.766-0.588,3.297-1.762,4.594C106.598,33.577,104.966,34.292,102.994,34.292z M103,32.687c1.363,0,2.535-0.504,3.516-1.512
			s1.471-2.227,1.471-3.656c0-0.922-0.225-1.781-0.671-2.578s-1.05-1.412-1.812-1.846c-0.76-0.434-1.595-0.65-2.504-0.65
			c-0.91,0-1.744,0.217-2.506,0.65c-0.76,0.434-1.363,1.049-1.811,1.846s-0.67,1.656-0.67,2.578c0,1.43,0.492,2.648,1.476,3.656
			S101.643,32.687,103,32.687z"/>
	</g>
	<g>
		<path fill="#B9D187" d="M81.787,38.886V21.214h1.617v2.191c0.688-0.836,1.459-1.465,2.314-1.887s1.791-0.633,2.807-0.633
			c1.805,0,3.346,0.654,4.623,1.963s1.916,2.9,1.916,4.775c0,1.836-0.645,3.406-1.934,4.711s-2.84,1.957-4.652,1.957
			c-1.047,0-1.994-0.223-2.842-0.668s-1.592-1.113-2.232-2.004v7.266H81.787z"/>
	</g>
	<g>
		<path fill="#4D4D4F" d="M79.244,33.964h-1.641v-5.953c0-1.453-0.078-2.453-0.235-3c-0.235-0.781-0.683-1.398-1.344-1.852
			s-1.449-0.68-2.364-0.68c-0.916,0-1.692,0.221-2.33,0.662s-1.078,1.021-1.32,1.74c-0.164,0.492-0.246,1.535-0.246,3.129v5.953
			h-1.676v-6.258c0-1.758,0.205-3.082,0.615-3.973s1.027-1.588,1.852-2.092s1.857-0.756,3.1-0.756s2.279,0.252,3.111,0.756
			s1.453,1.207,1.863,2.109s0.615,2.26,0.615,4.072V33.964z"/>
	</g>
	<g>
		<path fill="#4D4D4F" d="M53.867,31.315l1.301-0.809c1.124,1.492,2.658,2.238,4.601,2.238c1.554,0,2.843-0.499,3.868-1.498
			c1.026-0.998,1.539-2.212,1.539-3.641c0-0.928-0.235-1.803-0.707-2.621c-0.473-0.82-1.121-1.455-1.943-1.908
			c-0.824-0.453-1.746-0.68-2.769-0.68c-1.872,0-3.402,0.746-4.589,2.238l-1.301-0.855c0.609-0.918,1.428-1.629,2.455-2.135
			s2.197-0.76,3.51-0.76c2.016,0,3.688,0.641,5.016,1.922s1.992,2.84,1.992,4.676c0,1.234-0.311,2.381-0.932,3.439
			s-1.475,1.885-2.561,2.479s-2.301,0.891-3.645,0.891c-0.844,0-1.658-0.129-2.443-0.387s-1.451-0.594-1.998-1.008
			S54.25,31.956,53.867,31.315z"/>
	</g>
	<g>
		<path fill="#4D4D4F" d="M50.486,38.698h-1.641v-4.734h-2.602v-1.418h2.602V21.214h1.641v11.332h2.238v1.418h-2.238V38.698z"/>
	</g>
	<g>
		<path fill="#4D4D4F" d="M43.215,39.214c-0.374,0-0.693-0.133-0.957-0.398c-0.265-0.266-0.396-0.586-0.396-0.961
			c0-0.367,0.132-0.684,0.396-0.949c0.264-0.266,0.583-0.398,0.957-0.398c0.365,0,0.68,0.133,0.945,0.398
			c0.264,0.266,0.396,0.582,0.396,0.949c0,0.375-0.133,0.695-0.396,0.961C43.895,39.081,43.58,39.214,43.215,39.214z M44.029,33.964
			h-1.641v-12.75h1.641V33.964z"/>
	</g>
	<g>
		<path fill="#4D4D4F" d="M34.143,34.292c-1.965,0-3.592-0.711-4.884-2.133c-1.174-1.297-1.761-2.832-1.761-4.605
			c0-1.781,0.62-3.338,1.861-4.67c1.24-1.332,2.834-1.998,4.783-1.998c1.957,0,3.555,0.666,4.795,1.998
			c1.241,1.332,1.861,2.889,1.861,4.67c0,1.766-0.587,3.297-1.761,4.594C37.746,33.577,36.115,34.292,34.143,34.292z M34.148,32.687
			c1.364,0,2.536-0.504,3.517-1.512c0.979-1.008,1.47-2.227,1.47-3.656c0-0.922-0.224-1.781-0.67-2.578
			c-0.447-0.797-1.051-1.412-1.812-1.846s-1.595-0.65-2.505-0.65c-0.909,0-1.744,0.217-2.505,0.65s-1.364,1.049-1.812,1.846
			c-0.446,0.797-0.67,1.656-0.67,2.578c0,1.43,0.492,2.648,1.477,3.656C31.622,32.183,32.792,32.687,34.148,32.687z"/>
	</g>
	<g>
		<path fill="#4D4D4F" d="M25.663,33.964h-1.641v-2.285c-0.656,0.875-1.383,1.529-2.18,1.963s-1.664,0.65-2.602,0.65
			c-0.953,0-1.799-0.242-2.537-0.727s-1.283-1.137-1.635-1.957s-0.527-2.098-0.527-3.832v-6.562h1.641v6.082
			c0,1.469,0.062,2.449,0.183,2.941c0.189,0.844,0.555,1.479,1.094,1.904s1.242,0.639,2.109,0.639c0.992,0,1.882-0.328,2.667-0.984
			s1.303-1.469,1.553-2.438c0.156-0.633,0.234-1.789,0.234-3.469v-4.676h1.641V33.964z"/>
	</g>
	<g>
		<path fill="#4D4D4F" d="M5.816,32.569l1.055-1.09c0.877,0.852,1.734,1.277,2.572,1.277c0.533,0,0.989-0.176,1.369-0.527
			s0.57-0.762,0.57-1.23c0-0.414-0.157-0.809-0.471-1.184c-0.312-0.383-0.971-0.832-1.973-1.348
			c-1.221-0.633-2.051-1.242-2.489-1.828c-0.431-0.594-0.646-1.262-0.646-2.004c0-1.047,0.367-1.934,1.104-2.66
			c0.734-0.727,1.654-1.09,2.758-1.09c0.735,0,1.438,0.16,2.106,0.48s1.223,0.762,1.661,1.324l-1.031,1.172
			c-0.838-0.945-1.727-1.418-2.667-1.418c-0.657,0-1.218,0.211-1.68,0.633s-0.692,0.918-0.692,1.488
			c0,0.469,0.152,0.887,0.457,1.254c0.306,0.359,0.994,0.812,2.067,1.359c1.151,0.594,1.935,1.18,2.349,1.758
			c0.415,0.578,0.623,1.238,0.623,1.98c0,0.969-0.331,1.773-0.992,2.414c-0.662,0.641-1.496,0.961-2.506,0.961
			C8.188,34.292,7.006,33.718,5.816,32.569z"/>
	</g>
</g>
</svg>
